<svg xmlns="http://www.w3.org/2000/svg" viewBox="0 0 1440 560"><defs><linearGradient id="a" x1="0" x2="0" y1="0" y2="1"><stop offset="0" stop-color="#6b8bff" stop-opacity=".4"></stop><stop offset="1" stop-color="#6b8bff" stop-opacity="0"></stop></linearGradient></defs><path fill="none" d="M0 560v-44.8c28 0 52-11.2 80-11.2 112 0 208-28 320-28 140 0 260-140 400-140 168 0 312-168 480-168 56 0 104-11.2 160-11.2V560m0-403.2z"></path><path fill="none" d="M0 515.2c28 0 52-11.2 80-11.2 112 0 208-28 320-28 140 0 260-140 400-140 168 0 312-168 480-168 56 0 104-11.2 160-11.2" vector-effect="non-scaling-stroke"></path><circle cx="80" cy="504" r="6" vector-effect="non-scaling-stroke"></circle><circle cx="400" cy="476" r="6" vector-effect="non-scaling-stroke"></circle><circle cx="800" cy="336" r="6" vector-effect="non-scaling-stroke"></circle><circle cx="1280" cy="168" r="6" vector-effect="non-scaling-stroke"></circle></svg>
