<svg xmlns="http://www.w3.org/2000/svg" viewBox="0 0 24 24"><path fill-rule="evenodd" d="M12 24c6.627 0 12-5.373 12-12S18.627 0 12 0 0 5.373 0 12s5.373 12 12 12zm.48-15.832A.585.585 0 0 0 12.048 8c-.16 0-.3.056-.42.168a.537.537 0 0 0-.18.408V11.6h-4.26V8.576c0-.16-.06-.296-.18-.408A.555.555 0 0 0 6.6 8a.585.585 0 0 0-.432.168.555.555 0 0 0-.168.408v7.236c0 .168.052.308.156.42a.585.585 0 0 0 .432.168c.16 0 .3-.056.42-.168a.55.55 0 0 0 .18-.42v-3.108h4.26v3.108a.57.57 0 0 0 .168.42c.12.112.26.168.42.168.176 0 .32-.056.432-.168a.613.613 0 0 0 .18-.42V8.576a.53.53 0 0 0-.168-.408zm7.341 5.22a.533.533 0 0 0 .18-.372 3.115 3.115 0 0 0-.42-1.56 3.008 3.008 0 0 0-1.08-1.092 2.789 2.789 0 0 0-1.44-.396 2.81 2.81 0 0 0-1.464.408c-.448.272-.812.664-1.092 1.176-.272.504-.408 1.092-.408 1.764 0 .616.132 1.168.396 1.656.272.488.652.868 1.14 1.14.496.272 1.068.408 1.716.408.4 0 .792-.08 1.176-.24.384-.16.692-.356.924-.588.16-.136.24-.288.24-.456a.46.46 0 0 0-.144-.336.436.436 0 0 0-.336-.144.677.677 0 0 0-.348.108 2.35 2.35 0 0 1-.636.432c-.24.112-.552.168-.936.168-.56 0-1.036-.176-1.428-.528-.384-.352-.604-.82-.66-1.404h4.224a.59.59 0 0 0 .396-.144zm-3.924-1.98a1.836 1.836 0 0 1 1.164-.384c.432 0 .816.136 1.152.408.344.272.536.62.576 1.044v.096h-3.54c.104-.528.32-.916.648-1.164z" clip-rule="evenodd"/></svg>
