<svg xmlns="http://www.w3.org/2000/svg" fill="none" viewBox="0 0 404 303"><g clip-path="url(#clip0)"><path fill="#F8F8FC" d="M0 0h404v303H0z"/><path fill="#FCFCFF" stroke="#D5D8EB" d="M12.5 269.5h181v20h-181z"/><path fill="#A6BCEC" d="M24.309 277h34.29v5h-34.29z"/><path fill="#D5D8EB" d="M132.454 277h21.102v5h-21.102zM161.469 277h21.102v5h-21.102z"/><path fill="#FCFCFF" stroke="#D5D8EB" d="M210.5 269.5h181v20h-181z"/><path fill="#A6BCEC" d="M221.321 277h33.962v5h-33.962z"/><path fill="#D5D8EB" d="M329.301 277H350.2v5h-20.899zM359.78 277h20.899v5H359.78zM0 30h404v1H0z"/><path fill="#7E7CFA" fill-rule="evenodd" d="M21 24a9 9 0 1 0 0-18 9 9 0 0 0 0 18z" clip-rule="evenodd"/><path fill="#D5D8EB" d="M47 13h27v5H47zM84 13h27v5H84zM121 13h27v5h-27zM158 13h27v5h-27zM292 11h76v9h-76z"/><path fill="#D3D5F7" fill-rule="evenodd" d="M385 22a7 7 0 1 0 0-14 7 7 0 0 0 0 14z" clip-rule="evenodd"/><path fill="#A6BCEC" d="M236 195h68v5h-68z"/><path fill="#D5D8EB" d="M236 206h124v3H236zM264 243h96v3h-96zM264 249h96v3h-96zM236 212h124v3H236z"/><path fill="#D3D5F7" fill-rule="evenodd" d="M248.5 255c6.904 0 12.5-5.596 12.5-12.5s-5.596-12.5-12.5-12.5-12.5 5.596-12.5 12.5 5.596 12.5 12.5 12.5z" clip-rule="evenodd"/><path fill="#A6BCEC" d="M264 231h34v6h-34z"/><path fill="#D5D8EB" d="M236 218h84v3h-84z"/><path fill="#A6BCEC" d="M44 195h68v5H44z"/><path fill="#D5D8EB" d="M44 206h124v3H44zM72 243h96v3H72zM72 249h96v3H72zM44 212h124v3H44z"/><path fill="#D3D5F7" fill-rule="evenodd" d="M56.5 255c6.904 0 12.5-5.596 12.5-12.5S63.404 230 56.5 230 44 235.596 44 242.5 49.596 255 56.5 255z" clip-rule="evenodd"/><path fill="#A6BCEC" d="M72 231h34v6H72z"/><path fill="#D5D8EB" d="M44 218h84v3H44z"/><path fill="#FCFCFF" stroke="#D5D8EB" d="M12.5 156.5h380v24h-380z"/><path fill="#D5D8EB" d="M20.799 166h21.998v5H20.799zM51.596 166h21.998v5H51.596zM82.393 166h21.998v5H82.393zM113.189 166h21.998v5h-21.998zM331.406 166h21.998v5h-21.998zM362.203 166h21.998v5h-21.998z"/><path fill="#FCFCFF" stroke="#D5D8EB" d="M12.5 45.5h379v96h-379z"/><path fill="#D5D8EB" fill-opacity=".28" d="M22.066 78h359.868v1H22.066zM22.066 89h359.868v1H22.066zM22.066 100h359.868v1H22.066z"/><path fill="#D5D8EB" fill-opacity=".61" d="M22.066 111h359.868v1H22.066z"/><path fill="#D5D8EB" d="M22.066 53H186.9v5H22.066z"/><path fill="#A6BCEC" d="M22.066 124h23.907v3H22.066zM84.98 124h23.907v3H84.98zM147.894 124h23.907v3h-23.907zM358.026 127h23.907v3h-23.907z"/><path fill="#D5D8EB" d="M22.066 131h50.331v3H22.066zM84.98 131h50.331v3H84.98zM147.894 131h50.331v3h-50.331z"/><path fill="#7E7CFA" d="M34.649 95h7.55v17h-7.55zM170.543 95h7.55v17h-7.55zM306.437 92h7.55v20h-7.55zM45.974 87h7.55v25h-7.55zM181.868 87h7.55v25h-7.55zM317.762 87h7.55v25h-7.55zM57.298 90h7.55v22h-7.55zM193.192 90h7.55v22h-7.55zM329.086 90h7.55v22h-7.55zM68.623 93h7.55v19h-7.55zM204.517 90h7.55v22h-7.55zM340.411 93h7.55v19h-7.55zM79.947 87h7.55v25h-7.55zM215.841 87h7.55v25h-7.55zM351.735 87h7.55v25h-7.55zM91.272 82h7.55v30h-7.55zM227.166 82h7.55v30h-7.55zM363.06 82h7.55v30h-7.55zM102.596 80h7.55v32h-7.55zM238.49 80h7.55v32h-7.55zM113.921 84h7.55v28h-7.55zM249.815 84h7.55v28h-7.55zM125.245 80h7.55v32h-7.55zM261.139 75h7.55v37h-7.55zM136.57 79h7.55v33h-7.55zM272.464 79h7.55v33h-7.55zM147.894 88h7.55v24h-7.55zM283.788 88h7.55v24h-7.55zM159.219 93h7.55v19h-7.55zM295.113 93h7.55v19h-7.55z"/></g><defs><clipPath id="clip0"><path fill="#fff" d="M0 0h404v303H0z"/></clipPath></defs></svg>