<svg xmlns="http://www.w3.org/2000/svg" fill="none" viewBox="0 0 458 258"><path fill="#F8F8FC" d="M0 0h458v258H0z"/><path fill="#FCFCFF" stroke="#D5D8EB" d="M13.5 230.5h208v20h-208z"/><path fill="#A6BCEC" d="M27.135 238h39.377v5H27.135z"/><path fill="#D5D8EB" d="M115.985 238h24.232v5h-24.232zM151.324 238h24.232v5h-24.232zM184.643 238h24.232v5h-24.232z"/><path fill="#FCFCFF" stroke="#D5D8EB" d="M237.5 230.5h208v20h-208z"/><path fill="#A6BCEC" d="M250 238h39v5h-39z"/><path fill="#D5D8EB" d="M341 238h24v5h-24zM374 238h24v5h-24zM409 238h24v5h-24zM0 30h458v1H0z"/><path fill="#7E7CFA" fill-rule="evenodd" d="M22 24a9 9 0 1 0 0-18 9 9 0 0 0 0 18z" clip-rule="evenodd"/><path fill="#D5D8EB" d="M47 13h27v5H47zM84 13h27v5H84zM121 13h27v5h-27zM158 13h27v5h-27zM346 11h76v9h-76z"/><path fill="#D3D5F7" fill-rule="evenodd" d="M439 22a7 7 0 1 0 0-14 7 7 0 0 0 0 14z" clip-rule="evenodd"/><path fill="#FCFCFF" stroke="#D5D8EB" d="M325.5 45.5h120v96h-120z"/><path fill="#D5D8EB" d="M333 53h49v5h-49zM399 78h16v3h-16z"/><path fill="#D3D5F7" d="M399 84h37v2h-37z"/><path fill="#D5D8EB" d="M399 92h16v3h-16z"/><path fill="#D3D5F7" d="M399 98h37v2h-37z"/><path fill="#D5D8EB" d="M399 106h16v3h-16z"/><path fill="#D3D5F7" d="M399 112h37v2h-37z"/><path fill="#D3D5F7" fill-rule="evenodd" d="M362.5 123c15.188 0 27.5-12.312 27.5-27.5S377.688 68 362.5 68 335 80.312 335 95.5s12.312 27.5 27.5 27.5z" clip-rule="evenodd"/><mask id="a" width="55" height="55" x="335" y="68" maskUnits="userSpaceOnUse"><path fill="#fff" fill-rule="evenodd" d="M362.5 123c15.188 0 27.5-12.312 27.5-27.5S377.688 68 362.5 68 335 80.312 335 95.5s12.312 27.5 27.5 27.5z" clip-rule="evenodd"/></mask><g fill-rule="evenodd" clip-rule="evenodd" mask="url(#a)"><path fill="#F2F4FD" d="M362 63l.5 32.5L385 75l-8-8.5-15-3.5z"/><path fill="#E1E5F4" d="M386.528 74l-24.2 21.7L385 119l8.727-31.383L386.528 74z"/></g><path fill="#E1E5F4" d="M365 132h11v2h-11zM380 132h11v2h-11zM395 132h11v2h-11z"/><path fill="#A6BCEC" d="M167 156h68v5h-68z"/><path fill="#D5D8EB" d="M167 167h124v3H167zM195 204h96v3h-96zM195 210h96v3h-96zM167 173h124v3H167z"/><path fill="#D3D5F7" fill-rule="evenodd" d="M179.5 216c6.904 0 12.5-5.596 12.5-12.5s-5.596-12.5-12.5-12.5-12.5 5.596-12.5 12.5 5.596 12.5 12.5 12.5z" clip-rule="evenodd"/><path fill="#A6BCEC" d="M195 192h34v6h-34z"/><path fill="#D5D8EB" d="M167 179h84v3h-84z"/><path fill="#A6BCEC" d="M321 156h68v5h-68z"/><path fill="#D5D8EB" d="M321 167h124v3H321zM349 204h96v3h-96zM349 210h96v3h-96zM321 173h124v3H321z"/><path fill="#D3D5F7" fill-rule="evenodd" d="M333.5 216c6.904 0 12.5-5.596 12.5-12.5s-5.596-12.5-12.5-12.5-12.5 5.596-12.5 12.5 5.596 12.5 12.5 12.5z" clip-rule="evenodd"/><path fill="#A6BCEC" d="M349 192h34v6h-34z"/><path fill="#D5D8EB" d="M321 179h84v3h-84z"/><path fill="#A6BCEC" d="M13 156h68v5H13z"/><path fill="#D5D8EB" d="M13 167h124v3H13zM41 204h96v3H41zM41 210h96v3H41zM13 173h124v3H13z"/><path fill="#D3D5F7" fill-rule="evenodd" d="M25.5 216c6.904 0 12.5-5.596 12.5-12.5S32.404 191 25.5 191 13 196.596 13 203.5 18.596 216 25.5 216z" clip-rule="evenodd"/><path fill="#A6BCEC" d="M41 192h34v6H41z"/><path fill="#D5D8EB" d="M13 179h84v3H13z"/><path fill="#FCFCFF" stroke="#D5D8EB" d="M13.5 45.5h301v96h-301z"/><path fill="#D5D8EB" fill-opacity=".28" d="M21 78h286v1H21zM21 89h286v1H21zM21 100h286v1H21z"/><path fill="#D5D8EB" fill-opacity=".61" d="M21 111h286v1H21z"/><path fill="#D5D8EB" d="M21 53h131v5H21z"/><path fill="#A6BCEC" d="M21 124h19v3H21zM71 124h19v3H71zM121 124h19v3h-19zM288 127h19v3h-19z"/><path fill="#D5D8EB" d="M21 131h40v3H21zM71 131h40v3H71zM121 131h40v3h-40z"/><path fill="#7E7CFA" d="M31 95h6v17h-6zM139 95h6v17h-6zM247 92h6v20h-6zM40 87h6v25h-6zM148 87h6v25h-6zM256 87h6v25h-6zM49 90h6v22h-6zM157 90h6v22h-6zM265 90h6v22h-6zM58 93h6v19h-6zM166 90h6v22h-6zM274 93h6v19h-6zM67 87h6v25h-6zM175 87h6v25h-6zM283 87h6v25h-6zM76 82h6v30h-6zM184 82h6v30h-6zM292 82h6v30h-6zM85 80h6v32h-6zM193 80h6v32h-6zM94 84h6v28h-6zM202 84h6v28h-6zM103 80h6v32h-6zM211 75h6v37h-6zM112 79h6v33h-6zM220 79h6v33h-6zM121 88h6v24h-6zM229 88h6v24h-6zM130 93h6v19h-6zM238 93h6v19h-6z"/></svg>