<svg xmlns="http://www.w3.org/2000/svg" fill="none" viewBox="0 0 404 303"><path fill="#F8F8FC" d="M0 0h404v303H0z"/><path fill="#FCFCFF" stroke="#D5D8EB" d="M12.5 269.5h181v20h-181z"/><path fill="#A6BCEC" d="M24.309 277h34.29v5h-34.29z"/><path fill="#D5D8EB" d="M132.454 277h21.102v5h-21.102zm29.015 0h21.102v5h-21.102z"/><path fill="#FCFCFF" stroke="#D5D8EB" d="M210.5 269.5h181v20h-181z"/><path fill="#A6BCEC" d="M221.321 277h33.962v5h-33.962z"/><path fill="#D5D8EB" d="M329.301 277H350.2v5h-20.899zm30.479 0h20.899v5H359.78zM0 30h404v1H0z"/><path fill="#7E7CFA" fill-rule="evenodd" d="M21 24a9 9 0 100-18 9 9 0 000 18z" clip-rule="evenodd"/><path fill="#D5D8EB" d="M47 13h27v5H47zm37 0h27v5H84zm37 0h27v5h-27zm37 0h27v5h-27zm134-2h76v9h-76z"/><path fill="#D3D5F7" fill-rule="evenodd" d="M385 22a7 7 0 100-14 7 7 0 000 14z" clip-rule="evenodd"/><path fill="#A6BCEC" d="M236 195h68v5h-68z"/><path fill="#D5D8EB" d="M236 206h124v3H236zm28 37h96v3h-96zm0 6h96v3h-96zm-28-37h124v3H236z"/><path fill="#D3D5F7" fill-rule="evenodd" d="M248.5 255c6.904 0 12.5-5.596 12.5-12.5s-5.596-12.5-12.5-12.5-12.5 5.596-12.5 12.5 5.596 12.5 12.5 12.5z" clip-rule="evenodd"/><path fill="#A6BCEC" d="M264 231h34v6h-34z"/><path fill="#D5D8EB" d="M236 218h84v3h-84z"/><path fill="#A6BCEC" d="M44 195h68v5H44z"/><path fill="#D5D8EB" d="M44 206h124v3H44zm28 37h96v3H72zm0 6h96v3H72zm-28-37h124v3H44z"/><path fill="#D3D5F7" fill-rule="evenodd" d="M56.5 255c6.904 0 12.5-5.596 12.5-12.5S63.404 230 56.5 230 44 235.596 44 242.5 49.596 255 56.5 255z" clip-rule="evenodd"/><path fill="#A6BCEC" d="M72 231h34v6H72z"/><path fill="#D5D8EB" d="M44 218h84v3H44z"/><path fill="#FCFCFF" stroke="#D5D8EB" d="M12.5 156.5h380v24h-380z"/><path fill="#D5D8EB" d="M20.799 166h21.998v5H20.799zm30.797 0h21.998v5H51.596zm30.797 0h21.998v5H82.393zm30.796 0h21.998v5h-21.998zm218.217 0h21.998v5h-21.998zm30.797 0h21.998v5h-21.998z"/><path fill="#FCFCFF" stroke="#D5D8EB" d="M12.5 45.5h379v96h-379z"/><path fill="#D5D8EB" fill-opacity=".28" d="M22.066 78h359.868v1H22.066zm0 11h359.868v1H22.066zm0 11h359.868v1H22.066z"/><path fill="#D5D8EB" fill-opacity=".61" d="M22.066 111h359.868v1H22.066z"/><path fill="#D5D8EB" d="M22.066 53H186.9v5H22.066z"/><path fill="#A6BCEC" d="M22.066 124h23.907v3H22.066zm62.914 0h23.907v3H84.98zm62.914 0h23.907v3h-23.907zm210.132 3h23.907v3h-23.907z"/><path fill="#D5D8EB" d="M22.066 131h50.331v3H22.066zm62.914 0h50.331v3H84.98zm62.914 0h50.331v3h-50.331z"/><path fill="#7E7CFA" d="M34.649 95h7.55v17h-7.55zm135.894 0h7.55v17h-7.55zm135.894-3h7.55v20h-7.55zM45.974 87h7.55v25h-7.55zm135.894 0h7.55v25h-7.55zm135.894 0h7.55v25h-7.55zM57.298 90h7.55v22h-7.55zm135.894 0h7.55v22h-7.55zm135.894 0h7.55v22h-7.55zM68.623 93h7.55v19h-7.55zm135.894-3h7.55v22h-7.55zm135.894 3h7.55v19h-7.55zM79.947 87h7.55v25h-7.55zm135.894 0h7.55v25h-7.55zm135.894 0h7.55v25h-7.55zM91.272 82h7.55v30h-7.55zm135.894 0h7.55v30h-7.55zm135.894 0h7.55v30h-7.55zm-260.464-2h7.55v32h-7.55zm135.894 0h7.55v32h-7.55zm-124.569 4h7.55v28h-7.55zm135.894 0h7.55v28h-7.55zm-124.57-4h7.55v32h-7.55zm135.894-5h7.55v37h-7.55zM136.57 79h7.55v33h-7.55zm135.894 0h7.55v33h-7.55zm-124.57 9h7.55v24h-7.55zm135.894 0h7.55v24h-7.55zm-124.569 5h7.55v19h-7.55zm135.894 0h7.55v19h-7.55z"/></svg>