<svg xmlns="http://www.w3.org/2000/svg" fill="none" viewBox="0 0 176 313"><path fill="#F8F8FC" d="M0 0h176v313H0z"/><path fill="#FCFCFF" stroke="#D5D8EB" d="M12.5 249.5h151v20h-151z"/><path fill="#A6BCEC" d="M23.507 257h34.522v5H23.507z"/><path fill="#D5D8EB" d="M104.057 257h21.244v5h-21.244zm29.211 0h21.244v5h-21.244z"/><path fill="#FCFCFF" stroke="#D5D8EB" d="M12.5 284.5h151v20h-151z"/><path fill="#A6BCEC" d="M23.507 292h34.522v5H23.507z"/><path fill="#D5D8EB" d="M104.057 292h21.244v5h-21.244zm29.211 0h21.244v5h-21.244z"/><path fill="#A6BCEC" d="M12 173h68v5H12z"/><path fill="#D5D8EB" d="M12 184h152v3H12zm28 37h124v3H40zm0 6h124v3H40zm-28-37h152v3H12z"/><path fill="#D3D5F7" fill-rule="evenodd" d="M24.5 233c6.904 0 12.5-5.596 12.5-12.5S31.404 208 24.5 208 12 213.596 12 220.5 17.596 233 24.5 233z" clip-rule="evenodd"/><path fill="#A6BCEC" d="M40 209h34v6H40z"/><path fill="#D5D8EB" d="M12 196h84v3H12z"/><path fill="#FCFCFF" stroke="#D5D8EB" d="M12.5 43.075h151v120.851h-151z"/><path fill="#D5D8EB" d="M22.05 52.624h61.554v6.281H22.05zm82.909 31.405h20.099v3.769h-20.099z"/><path fill="#D3D5F7" d="M104.959 91.566h46.479v2.512h-46.479z"/><path fill="#D5D8EB" d="M104.959 101.616h20.099v3.769h-20.099z"/><path fill="#D3D5F7" d="M104.959 109.153h46.479v2.512h-46.479z"/><path fill="#D5D8EB" d="M104.959 119.203h20.099v3.769h-20.099z"/><path fill="#D3D5F7" d="M104.959 126.74h46.479v2.512h-46.479z"/><path fill="#D3D5F7" fill-rule="evenodd" d="M59.107 140.558c19.08 0 34.546-15.467 34.546-34.546 0-19.078-15.467-34.545-34.546-34.545-19.078 0-34.545 15.467-34.545 34.545 0 19.079 15.466 34.546 34.545 34.546z" clip-rule="evenodd"/><mask id="device_phone" width="70" height="70" x="24" y="71" maskUnits="userSpaceOnUse"><path fill="#fff" fill-rule="evenodd" d="M59.107 140.558c19.08 0 34.546-15.467 34.546-34.546 0-19.078-15.467-34.545-34.546-34.545-19.078 0-34.545 15.467-34.545 34.545 0 19.079 15.466 34.546 34.545 34.546z" clip-rule="evenodd"/></mask><g fill-rule="evenodd" clip-rule="evenodd" mask="url(#device_phone)"><path fill="#F2F4FD" d="M58.48 65.186l.627 40.826L87.372 80.26l-10.05-10.677-18.843-4.397z"/><path fill="#E1E5F4" d="M89.291 79.004l-30.4 27.259 28.48 29.27L98.336 96.11l-9.044-17.106z"/></g><path fill="#E1E5F4" d="M62.248 151.864h13.818v2.512H62.248zm18.843 0h13.818v2.512H81.091zm18.843 0h13.818v2.512H99.934z"/><path fill="#D5D8EB" d="M0 30h176v1H0z"/><path fill="#7E7CFA" fill-rule="evenodd" d="M21 24a9 9 0 100-18 9 9 0 000 18z" clip-rule="evenodd"/><path fill="#D5D8EB" d="M63 13h27v5H63zm37 0h27v5h-27zm37 0h27v5h-27z"/></svg>